<svg xmlns="http://www.w3.org/2000/svg" viewBox="0 0 640 150" width="640" height="150"><defs><linearGradient id="g" x1="0" y1="0" x2="1" y2="1"><stop offset="0" stop-color="#1cd39c"></stop><stop offset="1" stop-color="#00a87e"></stop></linearGradient></defs><g transform="translate(0,15)"><rect x="4" y="4" width="112" height="112" rx="44" fill="url(#g)"></rect><path d="M42 30 L60 30 A21 21 0 0 1 60 72 L60 92 L42 92 Z M66 42 A9 9 0 1 0 66 60 A9 9 0 1 0 66 42 Z" fill="#ffffff" fill-rule="evenodd"></path><path d="M90 28 C91 36 94 39 102 40 C94 41 91 44 90 52 C89 44 86 41 78 40 C86 39 89 36 90 28 Z" fill="#c6f8e3"></path></g><text class="wm" x="150" y="102" font-size="84" fill="#10162a">Pepti<tspan fill="#00b083">Brain</tspan></text></svg>